<svg width="1208" height="279" xmlns="http://www.w3.org/2000/svg" xmlns:xlink="http://www.w3.org/1999/xlink" overflow="hidden"><defs><clipPath id="clip0"><rect x="117" y="1098" width="1208" height="279"/></clipPath></defs><g clip-path="url(#clip0)" transform="translate(-117 -1098)"><rect x="117" y="1098" width="1208" height="279" fill="#ED7000"/><path d="M665.033 1237.35 714.492 1169.75C727.544 1150.68 718.27 1133 685.298 1133L665.033 1133 605.957 1219.32 584.319 1221.75C584.319 1221.75 584.319 1181.19 584.319 1181.19 584.319 1153.11 570.924 1133 537.608 1133L517 1133 517 1341 584.319 1341 584.319 1263 606.301 1260.57 666.064 1341 743 1341 665.033 1237.35Z" fill="#FFFFFF" fill-rule="evenodd"/><path d="M914.463 1237.35 963.938 1169.75C977.431 1150.68 968.09 1133 934.876 1133L914.117 1133 854.608 1219.32 832.812 1221.75C832.812 1221.75 832.812 1181.19 832.812 1181.19 832.812 1153.11 819.665 1133 786.105 1133L765 1133 765 1341 832.812 1341 832.812 1263 854.954 1260.57 915.155 1341 993 1341 914.463 1237.35Z" fill="#FFFFFF" fill-rule="evenodd"/><path d="M412.816 1133 392 1133 392 1341 460 1341 460 1181.19C460 1149.64 443.694 1133 412.816 1133Z" fill="#FFFFFF" fill-rule="evenodd"/></g></svg>